<svg
   xmlns:dc="http://purl.org/dc/elements/1.1/"
   xmlns:cc="http://creativecommons.org/ns#"
   xmlns:rdf="http://www.w3.org/1999/02/22-rdf-syntax-ns#"
   xmlns:svg="http://www.w3.org/2000/svg"
   xmlns="http://www.w3.org/2000/svg"
   id="svg29"
   version="1.1"
   viewBox="0 0  380 280">
  <metadata
     id="metadata35">
    <rdf:RDF>
      <cc:Work
         rdf:about="">
        <dc:format>image/svg+xml</dc:format>
        <dc:type
           rdf:resource="http://purl.org/dc/dcmitype/StillImage" />
      </cc:Work>
    </rdf:RDF>
  </metadata>
  <defs
     id="defs33" />
  <svg
     height="100%"
     width="100%"
     id="svg2"
     version="1.1"
     viewBox="0 0 380 280" />
  <linearGradient
     y2="100%"
     x2="0%"
     y1="0%"
     x1="0%"
     id="grad1">
    <stop
       id="stop4"
       style="stop-color:#1a1717;stop-opacity:1"
       offset="0%" />
    <stop
       id="stop6"
       style="stop-color:#1a1717;stop-opacity:1"
       offset="50%" />
    <stop
       id="stop8"
       style="stop-color:#1a1717;stop-opacity:1"
       offset="100%" />
  </linearGradient>
  <path
     id="path11"
     fill="url(#grad1)"
     d="M83.3125 106.25 L 320.6875 106.25 Q 323.6875 106.25 323.6875 109.25 L 323.6875 108.25 L 323.6875 143.75 Q 323.6875 171.75 281.6875 171.75 L 59.3125 171.75  Q 56.3125 171.75 56.3125 170.75  L  56.3125 153.0 Q 56.3125 106.25 98.3125 106.25   Z " />
  <g
     id="text13"
     style="font-size:45px;font-family:lianmengqiyilushuaizhengruiheiti;fill:#ffffff;fill-opacity:1"
     aria-label="D">
    <path
       id="path37"
       style="font-size:45px;font-family:lianmengqiyilushuaizhengruiheiti;fill:#ffffff;fill-opacity:1"
       d="m 79.706543,122.79541 v 25.51025 h 5.361328 q 6.789551,0 9.931641,-3.07617 3.164062,-3.07617 3.164062,-9.71191 0,-6.5918 -3.164062,-9.646 -3.14209,-3.07617 -9.931641,-3.07617 z m -4.438477,-3.64746 h 9.118653 q 9.536133,0 13.996582,3.97705 4.460449,3.95508 4.460449,12.39258 0,8.48144 -4.482422,12.45849 -4.482422,3.97705 -13.974609,3.97705 h -9.118653 z" />
  </g>
  <g
     id="text15"
     style="font-size:45px;font-family:lianmengqiyilushuaizhengruiheiti;fill:#ffffff;fill-opacity:1"
     aria-label="A">
    <path
       id="path40"
       style="font-size:45px;font-family:lianmengqiyilushuaizhengruiheiti;fill:#ffffff;fill-opacity:1"
       d="m 124.79492,123.52051 -6.02051,16.32568 h 12.06299 z m -2.50488,-4.37256 h 5.03174 l 12.50244,32.80517 h -4.61426 l -2.98828,-8.41552 h -14.7876 l -2.98828,8.41552 h -4.68017 z" />
  </g>
  <g
     id="text17"
     style="font-size:45px;font-family:lianmengqiyilushuaizhengruiheiti;fill:#ffffff;fill-opacity:1"
     aria-label="K">
    <path
       id="path43"
       style="font-size:45px;font-family:lianmengqiyilushuaizhengruiheiti;fill:#ffffff;fill-opacity:1"
       d="m 146.76807,119.14795 h 4.43847 v 13.86475 l 14.72168,-13.86475 h 5.71289 l -16.28174,15.29297 17.44629,17.5122 h -5.84472 l -15.7544,-15.79833 v 15.79833 h -4.43847 z" />
  </g>
  <g
     id="text19"
     style="font-size:45px;font-family:lianmengqiyilushuaizhengruiheiti;fill:#ffffff;fill-opacity:1"
     aria-label="A">
    <path
       id="path46"
       style="font-size:45px;font-family:lianmengqiyilushuaizhengruiheiti;fill:#ffffff;fill-opacity:1"
       d="m 194.88867,123.52051 -6.02051,16.32568 h 12.06299 z m -2.50488,-4.37256 h 5.03174 l 12.50244,32.80517 h -4.61426 l -2.98828,-8.41552 h -14.7876 l -2.98828,8.41552 h -4.68018 z" />
  </g>
  <g
     id="text21"
     style="font-size:45px;font-family:lianmengqiyilushuaizhengruiheiti;fill:#ffffff;fill-opacity:1"
     aria-label="I">
    <path
       id="path49"
       style="font-size:45px;font-family:lianmengqiyilushuaizhengruiheiti;fill:#ffffff;fill-opacity:1"
       d="m 216.86182,119.14795 h 4.43847 v 32.80517 h -4.43847 z" />
  </g>
  <g
     id="text23"
     style="font-size:45px;font-family:lianmengqiyilushuaizhengruiheiti;fill:#ffffff;fill-opacity:1"
     aria-label=".">
    <path
       id="path52"
       style="font-size:45px;font-family:lianmengqiyilushuaizhengruiheiti;fill:#ffffff;fill-opacity:1"
       d="m 234.2207,156.875 h 4.21875 v 4.13086 h -4.21875 z" />
  </g>
  <g
     id="text25"
     style="font-size:45px;font-family:lianmengqiyilushuaizhengruiheiti;fill:#ffffff;fill-opacity:1"
     aria-label="T">
    <path
       id="path55"
       style="font-size:45px;font-family:lianmengqiyilushuaizhengruiheiti;fill:#ffffff;fill-opacity:1"
       d="m 247.25098,119.14795 h 27.75146 v 3.73535 h -11.64551 v 29.06982 h -4.46045 V 122.8833 h -11.6455 z" />
  </g>
  <g
     id="text27"
     style="font-size:45px;font-family:lianmengqiyilushuaizhengruiheiti;fill:#ffffff;fill-opacity:1"
     aria-label="V">
    <path
       id="path58"
       style="font-size:45px;font-family:lianmengqiyilushuaizhengruiheiti;fill:#ffffff;fill-opacity:1"
       d="M 291.08691,151.95312 278.5625,119.14795 h 4.63623 l 10.39307,27.61963 10.41504,-27.61963 h 4.61425 l -12.50244,32.80517 z" />
  </g>
</svg>
